<mxfile host="Electron" modified="2023-11-06T18:32:53.156Z" agent="Mozilla/5.0 (Windows NT 10.0; Win64; x64) AppleWebKit/537.36 (KHTML, like Gecko) draw.io/22.0.3 Chrome/114.0.5735.289 Electron/25.8.4 Safari/537.36" etag="IAvCUzUOmMrCorIWN_jm" version="22.0.3" type="device">
  <diagram name="Page-1" id="iHA-MtDjYKI4uMbtsPJM">
    <mxGraphModel dx="1451" dy="679" grid="1" gridSize="10" guides="1" tooltips="1" connect="1" arrows="1" fold="1" page="1" pageScale="1" pageWidth="1100" pageHeight="850" math="0" shadow="0">
      <root>
        <mxCell id="0" />
        <mxCell id="1" parent="0" />
        <mxCell id="NMye4yItUbntw5xOKEV--46" value="" style="rounded=0;whiteSpace=wrap;html=1;" vertex="1" parent="1">
          <mxGeometry x="761" y="20" width="330" height="410" as="geometry" />
        </mxCell>
        <mxCell id="NMye4yItUbntw5xOKEV--45" value="" style="rounded=0;whiteSpace=wrap;html=1;" vertex="1" parent="1">
          <mxGeometry x="425" y="20" width="330" height="410" as="geometry" />
        </mxCell>
        <mxCell id="NMye4yItUbntw5xOKEV--44" value="" style="rounded=0;whiteSpace=wrap;html=1;" vertex="1" parent="1">
          <mxGeometry x="90" y="20" width="330" height="410" as="geometry" />
        </mxCell>
        <mxCell id="NMye4yItUbntw5xOKEV--5" value="Repository" style="ellipse;whiteSpace=wrap;html=1;" vertex="1" parent="1">
          <mxGeometry x="210" y="170" width="80" height="80" as="geometry" />
        </mxCell>
        <mxCell id="NMye4yItUbntw5xOKEV--6" value="Stakeholder" style="ellipse;whiteSpace=wrap;html=1;" vertex="1" parent="1">
          <mxGeometry x="330" y="170" width="80" height="80" as="geometry" />
        </mxCell>
        <mxCell id="NMye4yItUbntw5xOKEV--17" value="" style="edgeStyle=orthogonalEdgeStyle;rounded=0;orthogonalLoop=1;jettySize=auto;html=1;" edge="1" parent="1" source="NMye4yItUbntw5xOKEV--7" target="NMye4yItUbntw5xOKEV--5">
          <mxGeometry relative="1" as="geometry" />
        </mxCell>
        <mxCell id="NMye4yItUbntw5xOKEV--7" value="Stakeholder" style="ellipse;whiteSpace=wrap;html=1;" vertex="1" parent="1">
          <mxGeometry x="100" y="170" width="80" height="80" as="geometry" />
        </mxCell>
        <mxCell id="NMye4yItUbntw5xOKEV--18" value="" style="edgeStyle=orthogonalEdgeStyle;rounded=0;orthogonalLoop=1;jettySize=auto;html=1;" edge="1" parent="1" source="NMye4yItUbntw5xOKEV--8" target="NMye4yItUbntw5xOKEV--5">
          <mxGeometry relative="1" as="geometry" />
        </mxCell>
        <mxCell id="NMye4yItUbntw5xOKEV--8" value="Stakeholder" style="ellipse;whiteSpace=wrap;html=1;" vertex="1" parent="1">
          <mxGeometry x="210" y="50" width="80" height="80" as="geometry" />
        </mxCell>
        <mxCell id="NMye4yItUbntw5xOKEV--16" value="" style="edgeStyle=orthogonalEdgeStyle;rounded=0;orthogonalLoop=1;jettySize=auto;html=1;" edge="1" parent="1" source="NMye4yItUbntw5xOKEV--9" target="NMye4yItUbntw5xOKEV--5">
          <mxGeometry relative="1" as="geometry" />
        </mxCell>
        <mxCell id="NMye4yItUbntw5xOKEV--9" value="Stakeholder" style="ellipse;whiteSpace=wrap;html=1;" vertex="1" parent="1">
          <mxGeometry x="210" y="290" width="80" height="80" as="geometry" />
        </mxCell>
        <mxCell id="NMye4yItUbntw5xOKEV--11" value="" style="edgeStyle=none;orthogonalLoop=1;jettySize=auto;html=1;rounded=0;" edge="1" parent="1" source="NMye4yItUbntw5xOKEV--6" target="NMye4yItUbntw5xOKEV--5">
          <mxGeometry width="80" relative="1" as="geometry">
            <mxPoint x="340" y="320" as="sourcePoint" />
            <mxPoint x="420" y="320" as="targetPoint" />
            <Array as="points" />
          </mxGeometry>
        </mxCell>
        <mxCell id="NMye4yItUbntw5xOKEV--21" value="Repository" style="ellipse;whiteSpace=wrap;html=1;" vertex="1" parent="1">
          <mxGeometry x="550" y="170" width="80" height="80" as="geometry" />
        </mxCell>
        <mxCell id="NMye4yItUbntw5xOKEV--22" value="Stakeholder" style="ellipse;whiteSpace=wrap;html=1;" vertex="1" parent="1">
          <mxGeometry x="670" y="170" width="80" height="80" as="geometry" />
        </mxCell>
        <mxCell id="NMye4yItUbntw5xOKEV--23" value="" style="edgeStyle=orthogonalEdgeStyle;rounded=0;orthogonalLoop=1;jettySize=auto;html=1;" edge="1" parent="1" source="NMye4yItUbntw5xOKEV--24" target="NMye4yItUbntw5xOKEV--21">
          <mxGeometry relative="1" as="geometry" />
        </mxCell>
        <mxCell id="NMye4yItUbntw5xOKEV--24" value="Stakeholder" style="ellipse;whiteSpace=wrap;html=1;" vertex="1" parent="1">
          <mxGeometry x="440" y="170" width="80" height="80" as="geometry" />
        </mxCell>
        <mxCell id="NMye4yItUbntw5xOKEV--25" value="" style="edgeStyle=orthogonalEdgeStyle;rounded=0;orthogonalLoop=1;jettySize=auto;html=1;" edge="1" parent="1" source="NMye4yItUbntw5xOKEV--26" target="NMye4yItUbntw5xOKEV--21">
          <mxGeometry relative="1" as="geometry" />
        </mxCell>
        <mxCell id="NMye4yItUbntw5xOKEV--41" value="" style="edgeStyle=orthogonalEdgeStyle;rounded=0;orthogonalLoop=1;jettySize=auto;html=1;" edge="1" parent="1" source="NMye4yItUbntw5xOKEV--26" target="NMye4yItUbntw5xOKEV--40">
          <mxGeometry relative="1" as="geometry" />
        </mxCell>
        <mxCell id="NMye4yItUbntw5xOKEV--26" value="Stakeholder" style="ellipse;whiteSpace=wrap;html=1;" vertex="1" parent="1">
          <mxGeometry x="550" y="50" width="80" height="80" as="geometry" />
        </mxCell>
        <mxCell id="NMye4yItUbntw5xOKEV--27" value="" style="edgeStyle=orthogonalEdgeStyle;rounded=0;orthogonalLoop=1;jettySize=auto;html=1;" edge="1" parent="1" source="NMye4yItUbntw5xOKEV--28" target="NMye4yItUbntw5xOKEV--21">
          <mxGeometry relative="1" as="geometry" />
        </mxCell>
        <mxCell id="NMye4yItUbntw5xOKEV--39" value="" style="edgeStyle=orthogonalEdgeStyle;rounded=0;orthogonalLoop=1;jettySize=auto;html=1;" edge="1" parent="1" source="NMye4yItUbntw5xOKEV--28" target="NMye4yItUbntw5xOKEV--38">
          <mxGeometry relative="1" as="geometry" />
        </mxCell>
        <mxCell id="NMye4yItUbntw5xOKEV--28" value="Stakeholder" style="ellipse;whiteSpace=wrap;html=1;" vertex="1" parent="1">
          <mxGeometry x="550" y="290" width="80" height="80" as="geometry" />
        </mxCell>
        <mxCell id="NMye4yItUbntw5xOKEV--29" value="" style="edgeStyle=none;orthogonalLoop=1;jettySize=auto;html=1;rounded=0;" edge="1" parent="1" source="NMye4yItUbntw5xOKEV--22" target="NMye4yItUbntw5xOKEV--21">
          <mxGeometry width="80" relative="1" as="geometry">
            <mxPoint x="680" y="320" as="sourcePoint" />
            <mxPoint x="760" y="320" as="targetPoint" />
            <Array as="points" />
          </mxGeometry>
        </mxCell>
        <mxCell id="NMye4yItUbntw5xOKEV--33" value="" style="edgeStyle=orthogonalEdgeStyle;rounded=0;orthogonalLoop=1;jettySize=auto;html=1;" edge="1" parent="1" source="NMye4yItUbntw5xOKEV--30" target="NMye4yItUbntw5xOKEV--32">
          <mxGeometry relative="1" as="geometry" />
        </mxCell>
        <mxCell id="NMye4yItUbntw5xOKEV--30" value="Stakeholder" style="ellipse;whiteSpace=wrap;html=1;" vertex="1" parent="1">
          <mxGeometry x="800" y="170" width="80" height="80" as="geometry" />
        </mxCell>
        <mxCell id="NMye4yItUbntw5xOKEV--32" value="Stakeholder" style="ellipse;whiteSpace=wrap;html=1;" vertex="1" parent="1">
          <mxGeometry x="960" y="170" width="80" height="80" as="geometry" />
        </mxCell>
        <mxCell id="NMye4yItUbntw5xOKEV--34" value="&lt;h3&gt;Hybrid&lt;/h3&gt;" style="text;strokeColor=none;align=center;fillColor=none;html=1;verticalAlign=middle;whiteSpace=wrap;rounded=0;" vertex="1" parent="1">
          <mxGeometry x="560" y="390" width="60" height="30" as="geometry" />
        </mxCell>
        <mxCell id="NMye4yItUbntw5xOKEV--35" value="&lt;h3&gt;Peer to Repository&lt;/h3&gt;" style="text;strokeColor=none;align=center;fillColor=none;html=1;verticalAlign=middle;whiteSpace=wrap;rounded=0;" vertex="1" parent="1">
          <mxGeometry x="178" y="390" width="137" height="30" as="geometry" />
        </mxCell>
        <mxCell id="NMye4yItUbntw5xOKEV--37" value="&lt;h3&gt;Peer to Peer&lt;/h3&gt;" style="text;strokeColor=none;align=center;fillColor=none;html=1;verticalAlign=middle;whiteSpace=wrap;rounded=0;" vertex="1" parent="1">
          <mxGeometry x="880" y="390" width="91" height="30" as="geometry" />
        </mxCell>
        <mxCell id="NMye4yItUbntw5xOKEV--38" value="Stakeholder" style="ellipse;whiteSpace=wrap;html=1;" vertex="1" parent="1">
          <mxGeometry x="433" y="290" width="80" height="80" as="geometry" />
        </mxCell>
        <mxCell id="NMye4yItUbntw5xOKEV--40" value="Stakeholder" style="ellipse;whiteSpace=wrap;html=1;" vertex="1" parent="1">
          <mxGeometry x="667" y="50" width="80" height="80" as="geometry" />
        </mxCell>
      </root>
    </mxGraphModel>
  </diagram>
</mxfile>
